<svg width="600" height="400" xmlns="http://www.w3.org/2000/svg">
  <!-- Pea 1: Classic Green - Dual highlights -->
  <ellipse cx="50" cy="50" rx="35" ry="32" fill="#4CAF50" stroke="#3c8c40" stroke-width="1"/>
  <ellipse cx="45" cy="45" rx="8" ry="6" fill="#66BB6A" opacity="0.7"/>
  <ellipse cx="60" cy="55" rx="5" ry="4" fill="#66BB6A" opacity="0.5"/>
  <!-- Pea 2: Classic Green - Dual highlights -->
  <ellipse cx="50" cy="120" rx="35" ry="32" fill="#4CAF50" stroke="#3c8c40" stroke-width="1"/>
  <ellipse cx="60" cy="110" rx="8" ry="6" fill="#66BB6A" opacity="0.7"/>
  <ellipse cx="45" cy="130" rx="5" ry="4" fill="#66BB6A" opacity="0.5"/>
  <!-- Pea 3: Classic Green - Dual highlights -->
  <ellipse cx="50" cy="190" rx="35" ry="32" fill="#4CAF50" stroke="#3c8c40" stroke-width="1"/>
  <ellipse cx="40" cy="200" rx="8" ry="6" fill="#66BB6A" opacity="0.7"/>
  <ellipse cx="65" cy="180" rx="5" ry="4" fill="#66BB6A" opacity="0.5"/>
  <!-- Pea 4: Bright Green - Dual highlights -->
  <ellipse cx="380" cy="50" rx="35" ry="32" fill="#9abf44" stroke="#7b9836" stroke-width="1"/>
  <ellipse cx="375" cy="45" rx="8" ry="6" fill="#b8d45a" opacity="0.7"/>
  <ellipse cx="390" cy="55" rx="5" ry="4" fill="#b8d45a" opacity="0.5"/>
  <!-- Pea 5: Bright Green - Multiple highlights -->
  <ellipse cx="380" cy="120" rx="35" ry="32" fill="#9abf44" stroke="#7b9836" stroke-width="1"/>
  <ellipse cx="390" cy="110" rx="8" ry="6" fill="#b8d45a" opacity="0.7"/>
  <ellipse cx="375" cy="130" rx="5" ry="4" fill="#b8d45a" opacity="0.5"/>
  <ellipse cx="370" cy="130" rx="8" ry="6" fill="#b8d45a" opacity="0.7"/>
  <!-- Pea 6: Bright Green - Dual highlights -->
  <ellipse cx="380" cy="190" rx="35" ry="32" fill="#9abf44" stroke="#7b9836" stroke-width="1"/>
  <ellipse cx="395" cy="180" rx="5" ry="4" fill="#b8d45a" opacity="0.5"/>
  <ellipse cx="395" cy="200" rx="8" ry="6" fill="#b8d45a" opacity="0.7"/>
  <!-- Pea 7: Dark Green - Multiple highlights -->
  <ellipse cx="710" cy="50" rx="35" ry="32" fill="#23400d" stroke="#1c330a" stroke-width="1"/>
  <ellipse cx="705" cy="45" rx="8" ry="6" fill="#2d5210" opacity="0.7"/>
  <ellipse cx="720" cy="55" rx="5" ry="4" fill="#2d5210" opacity="0.5"/>
  <ellipse cx="720" cy="40" rx="8" ry="6" fill="#2d5210" opacity="0.7"/>
  <!-- Pea 8: Dark Green - Dual highlights -->
  <ellipse cx="710" cy="120" rx="35" ry="32" fill="#23400d" stroke="#1c330a" stroke-width="1"/>
  <ellipse cx="705" cy="130" rx="5" ry="4" fill="#2d5210" opacity="0.5"/>
  <ellipse cx="700" cy="130" rx="8" ry="6" fill="#2d5210" opacity="0.7"/>
  <!-- Pea 9: Dark Green - Dual highlights -->
  <ellipse cx="710" cy="190" rx="35" ry="32" fill="#23400d" stroke="#1c330a" stroke-width="1"/>
  <ellipse cx="725" cy="180" rx="5" ry="4" fill="#2d5210" opacity="0.5"/>
  <ellipse cx="725" cy="200" rx="8" ry="6" fill="#2d5210" opacity="0.7"/>
  <!-- Pea 10: Light Green - Multiple highlights -->
  <ellipse cx="1040" cy="50" rx="35" ry="32" fill="#cde87d" stroke="#a4b964" stroke-width="1"/>
  <ellipse cx="1035" cy="45" rx="8" ry="6" fill="#d8ed8a" opacity="0.7"/>
  <ellipse cx="1050" cy="55" rx="5" ry="4" fill="#d8ed8a" opacity="0.5"/>
  <ellipse cx="1050" cy="40" rx="8" ry="6" fill="#d8ed8a" opacity="0.7"/>
  <!-- Pea 11: Light Green - Multiple highlights -->
  <ellipse cx="1040" cy="120" rx="35" ry="32" fill="#cde87d" stroke="#a4b964" stroke-width="1"/>
  <ellipse cx="1035" cy="130" rx="5" ry="4" fill="#d8ed8a" opacity="0.5"/>
  <ellipse cx="1030" cy="130" rx="8" ry="6" fill="#d8ed8a" opacity="0.7"/>
  <ellipse cx="1055" cy="110" rx="5" ry="4" fill="#d8ed8a" opacity="0.5"/>
  <!-- Pea 12: Light Green - Dual highlights -->
  <ellipse cx="1040" cy="190" rx="35" ry="32" fill="#cde87d" stroke="#a4b964" stroke-width="1"/>
  <ellipse cx="1055" cy="200" rx="8" ry="6" fill="#d8ed8a" opacity="0.7"/>
  <ellipse cx="1030" cy="180" rx="5" ry="4" fill="#d8ed8a" opacity="0.5"/>
  <!-- Pea 13: Forest Green - Multiple highlights -->
  <ellipse cx="50" cy="314" rx="35" ry="32" fill="#4c7017" stroke="#3c5912" stroke-width="1"/>
  <ellipse cx="45" cy="309" rx="8" ry="6" fill="#5d8a1d" opacity="0.7"/>
  <ellipse cx="60" cy="319" rx="5" ry="4" fill="#5d8a1d" opacity="0.5"/>
  <ellipse cx="60" cy="304" rx="8" ry="6" fill="#5d8a1d" opacity="0.7"/>
  <!-- Pea 14: Forest Green - Multiple highlights -->
  <ellipse cx="50" cy="384" rx="35" ry="32" fill="#4c7017" stroke="#3c5912" stroke-width="1"/>
  <ellipse cx="45" cy="394" rx="5" ry="4" fill="#5d8a1d" opacity="0.5"/>
  <ellipse cx="40" cy="394" rx="8" ry="6" fill="#5d8a1d" opacity="0.7"/>
  <ellipse cx="65" cy="374" rx="5" ry="4" fill="#5d8a1d" opacity="0.5"/>
  <!-- Pea 15: Forest Green - Dual highlights -->
  <ellipse cx="50" cy="454" rx="35" ry="32" fill="#4c7017" stroke="#3c5912" stroke-width="1"/>
  <ellipse cx="65" cy="464" rx="8" ry="6" fill="#5d8a1d" opacity="0.7"/>
  <ellipse cx="40" cy="444" rx="5" ry="4" fill="#5d8a1d" opacity="0.5"/>
  <!-- Pea 16: Lime Green - Dual highlights -->
  <ellipse cx="380" cy="314" rx="35" ry="32" fill="#a8d048" stroke="#86a639" stroke-width="1"/>
  <ellipse cx="375" cy="309" rx="8" ry="6" fill="#b8da5a" opacity="0.7"/>
  <ellipse cx="390" cy="319" rx="5" ry="4" fill="#b8da5a" opacity="0.5"/>
  <!-- Pea 17: Lime Green - Multiple highlights -->
  <ellipse cx="380" cy="384" rx="35" ry="32" fill="#a8d048" stroke="#86a639" stroke-width="1"/>
  <ellipse cx="390" cy="374" rx="8" ry="6" fill="#b8da5a" opacity="0.7"/>
  <ellipse cx="375" cy="394" rx="5" ry="4" fill="#b8da5a" opacity="0.5"/>
  <ellipse cx="370" cy="394" rx="8" ry="6" fill="#b8da5a" opacity="0.7"/>
  <!-- Pea 18: Lime Green - Multiple highlights -->
  <ellipse cx="380" cy="454" rx="35" ry="32" fill="#a8d048" stroke="#86a639" stroke-width="1"/>
  <ellipse cx="395" cy="444" rx="5" ry="4" fill="#b8da5a" opacity="0.5"/>
  <ellipse cx="395" cy="464" rx="8" ry="6" fill="#b8da5a" opacity="0.7"/>
  <ellipse cx="370" cy="444" rx="5" ry="4" fill="#b8da5a" opacity="0.5"/>
  <!-- Pea 19: Yellow - Dual highlights -->
  <ellipse cx="710" cy="314" rx="35" ry="32" fill="#FFC107" stroke="#cc9a05" stroke-width="1"/>
  <ellipse cx="705" cy="309" rx="8" ry="6" fill="#FFD54F" opacity="0.7"/>
  <ellipse cx="720" cy="319" rx="5" ry="4" fill="#FFD54F" opacity="0.5"/>
  <!-- Pea 20: Yellow - Multiple highlights -->
  <ellipse cx="710" cy="384" rx="35" ry="32" fill="#FFC107" stroke="#cc9a05" stroke-width="1"/>
  <ellipse cx="720" cy="374" rx="8" ry="6" fill="#FFD54F" opacity="0.7"/>
  <ellipse cx="705" cy="394" rx="5" ry="4" fill="#FFD54F" opacity="0.5"/>
  <ellipse cx="700" cy="394" rx="8" ry="6" fill="#FFD54F" opacity="0.7"/>
  <!-- Pea 21: Yellow - Multiple highlights -->
  <ellipse cx="710" cy="454" rx="35" ry="32" fill="#FFC107" stroke="#cc9a05" stroke-width="1"/>
  <ellipse cx="725" cy="444" rx="5" ry="4" fill="#FFD54F" opacity="0.5"/>
  <ellipse cx="725" cy="464" rx="8" ry="6" fill="#FFD54F" opacity="0.7"/>
  <ellipse cx="700" cy="444" rx="5" ry="4" fill="#FFD54F" opacity="0.5"/>
  <!-- Pea 22: Purple - Multiple highlights -->
  <ellipse cx="1040" cy="314" rx="35" ry="32" fill="#9C27B0" stroke="#7c1f8c" stroke-width="1"/>
  <ellipse cx="1035" cy="309" rx="8" ry="6" fill="#BA68C8" opacity="0.7"/>
  <ellipse cx="1050" cy="319" rx="5" ry="4" fill="#BA68C8" opacity="0.5"/>
  <ellipse cx="1050" cy="304" rx="8" ry="6" fill="#BA68C8" opacity="0.7"/>
  <!-- Pea 23: Purple - Multiple highlights -->
  <ellipse cx="1040" cy="384" rx="35" ry="32" fill="#9C27B0" stroke="#7c1f8c" stroke-width="1"/>
  <ellipse cx="1035" cy="394" rx="5" ry="4" fill="#BA68C8" opacity="0.5"/>
  <ellipse cx="1030" cy="394" rx="8" ry="6" fill="#BA68C8" opacity="0.7"/>
  <ellipse cx="1055" cy="374" rx="5" ry="4" fill="#BA68C8" opacity="0.5"/>
  <!-- Pea 24: Purple - Multiple highlights -->
  <ellipse cx="1040" cy="454" rx="35" ry="32" fill="#9C27B0" stroke="#7c1f8c" stroke-width="1"/>
  <ellipse cx="1055" cy="464" rx="8" ry="6" fill="#BA68C8" opacity="0.7"/>
  <ellipse cx="1030" cy="444" rx="5" ry="4" fill="#BA68C8" opacity="0.5"/>
  <ellipse cx="1040" cy="454" rx="10" ry="8" fill="#BA68C8" opacity="0.7"/>
  <!-- Pea 25: Sugar Snap - Dual highlights -->
  <ellipse cx="50" cy="578" rx="35" ry="32" fill="#8BC34A" stroke="#6f9c3b" stroke-width="1"/>
  <ellipse cx="45" cy="573" rx="8" ry="6" fill="#A5D6A7" opacity="0.7"/>
  <ellipse cx="60" cy="583" rx="5" ry="4" fill="#A5D6A7" opacity="0.5"/>
  <!-- Pea 26: Sugar Snap - Multiple highlights -->
  <ellipse cx="50" cy="648" rx="35" ry="32" fill="#8BC34A" stroke="#6f9c3b" stroke-width="1"/>
  <ellipse cx="60" cy="638" rx="8" ry="6" fill="#A5D6A7" opacity="0.7"/>
  <ellipse cx="45" cy="658" rx="5" ry="4" fill="#A5D6A7" opacity="0.5"/>
  <ellipse cx="40" cy="658" rx="8" ry="6" fill="#A5D6A7" opacity="0.7"/>
  <!-- Pea 27: Sugar Snap - Dual highlights -->
  <ellipse cx="50" cy="718" rx="35" ry="32" fill="#8BC34A" stroke="#6f9c3b" stroke-width="1"/>
  <ellipse cx="65" cy="708" rx="5" ry="4" fill="#A5D6A7" opacity="0.5"/>
  <ellipse cx="65" cy="728" rx="8" ry="6" fill="#A5D6A7" opacity="0.7"/>
  <!-- Pea 28: Split Pea - Dual highlights -->
  <ellipse cx="380" cy="578" rx="35" ry="32" fill="#795548" stroke="#604439" stroke-width="1"/>
  <ellipse cx="375" cy="573" rx="8" ry="6" fill="#A1887F" opacity="0.7"/>
  <ellipse cx="390" cy="583" rx="5" ry="4" fill="#A1887F" opacity="0.5"/>
  <!-- Pea 29: Split Pea - Multiple highlights -->
  <ellipse cx="380" cy="648" rx="35" ry="32" fill="#795548" stroke="#604439" stroke-width="1"/>
  <ellipse cx="390" cy="638" rx="8" ry="6" fill="#A1887F" opacity="0.7"/>
  <ellipse cx="375" cy="658" rx="5" ry="4" fill="#A1887F" opacity="0.5"/>
  <ellipse cx="370" cy="658" rx="8" ry="6" fill="#A1887F" opacity="0.7"/>
  <!-- Pea 30: Split Pea - Dual highlights -->
  <ellipse cx="380" cy="718" rx="35" ry="32" fill="#795548" stroke="#604439" stroke-width="1"/>
  <ellipse cx="395" cy="708" rx="5" ry="4" fill="#A1887F" opacity="0.5"/>
  <ellipse cx="395" cy="728" rx="8" ry="6" fill="#A1887F" opacity="0.7"/>
  <!-- Pea 31: Bright Green base with Lime Green highlights -->
  <ellipse cx="710" cy="578" rx="35" ry="32" fill="#9abf44" stroke="#7b9836" stroke-width="1"/>
  <ellipse cx="700" cy="568" rx="5" ry="4" fill="#b8da5a" opacity="0.5"/>
  <ellipse cx="710" cy="578" rx="10" ry="8" fill="#b8da5a" opacity="0.7"/>
  <ellipse cx="700" cy="568" rx="4" ry="3" fill="#b8da5a" opacity="0.5"/>
  <!-- Pea 32: Dark Green base with Light Green highlights -->
  <ellipse cx="1040" cy="578" rx="35" ry="32" fill="#23400d" stroke="#1c330a" stroke-width="1"/>
  <ellipse cx="1030" cy="573" rx="7" ry="5" fill="#d8ed8a" opacity="0.7"/>
  <ellipse cx="1055" cy="583" rx="5" ry="3" fill="#d8ed8a" opacity="0.5"/>
  <ellipse cx="1030" cy="563" rx="8" ry="6" fill="#d8ed8a" opacity="0.7"/>
  <!-- Pea 33: Forest Green base with Bright Green highlights -->
  <ellipse cx="50" cy="842" rx="35" ry="32" fill="#4c7017" stroke="#3c5912" stroke-width="1"/>
  <ellipse cx="40" cy="827" rx="8" ry="6" fill="#b8d45a" opacity="0.7"/>
  <ellipse cx="60" cy="837" rx="5" ry="4" fill="#b8d45a" opacity="0.5"/>
  <!-- Pea 34: Lime Green base with Forest Green highlights -->
  <ellipse cx="380" cy="842" rx="35" ry="32" fill="#a8d048" stroke="#86a639" stroke-width="1"/>
  <ellipse cx="390" cy="832" rx="8" ry="6" fill="#5d8a1d" opacity="0.7"/>
  <ellipse cx="375" cy="852" rx="5" ry="4" fill="#5d8a1d" opacity="0.5"/>
  <!-- Pea 35: Classic Green base with Bright Green highlights -->
  <ellipse cx="710" cy="842" rx="35" ry="32" fill="#4CAF50" stroke="#3c8c40" stroke-width="1"/>
  <ellipse cx="720" cy="847" rx="5" ry="4" fill="#b8d45a" opacity="0.5"/>
  <ellipse cx="720" cy="832" rx="8" ry="6" fill="#b8d45a" opacity="0.7"/>
  <!-- Pea 36: Light Green base with Dark Green highlights -->
  <ellipse cx="1040" cy="842" rx="35" ry="32" fill="#cde87d" stroke="#a4b964" stroke-width="1"/>
  <ellipse cx="1050" cy="857" rx="8" ry="6" fill="#2d5210" opacity="0.7"/>
  <ellipse cx="1030" cy="847" rx="5" ry="4" fill="#2d5210" opacity="0.5"/>
  <ellipse cx="1025" cy="842" rx="8" ry="6" fill="#2d5210" opacity="0.7"/>
</svg>